<svg width="1500" height="500" viewBox="0 0 1500 500" fill="none" xmlns="http://www.w3.org/2000/svg">
<g clip-path="url(#clip0)">
<rect width="1500" height="500" fill="#F2F6FF"/>
<path fill-rule="evenodd" clip-rule="evenodd" d="M292.472 -63.2747C362.755 -83.2937 452.871 -84.3113 504.067 -32.1636C555.57 20.2966 522.117 108.32 532.401 181.114C540.331 237.25 574.36 291.054 557.37 345.142C540.316 399.434 487.768 431.113 442.884 466.096C396.255 502.439 351.354 556.894 292.472 551.604C233.809 546.333 210.29 472.179 160.493 440.725C104.93 405.63 19.735 415.223 -13.3451 358.437C-46.8968 300.842 -34.0158 221.583 -0.847832 163.766C30.0542 109.899 104.329 105.72 153.438 67.7079C205.052 27.757 229.7 -45.3949 292.472 -63.2747Z" fill="#F24757"/>
<path fill-rule="evenodd" clip-rule="evenodd" d="M907.061 237.952C972.936 248.043 1021.41 296.683 1077.95 331.953C1140.15 370.746 1243.9 381.817 1254.09 454.406C1264.82 530.805 1154.95 567.449 1120.72 636.585C1094.38 689.775 1124.16 765.595 1080.23 805.507C1035.97 845.713 966.731 834.518 907.061 830.69C850.991 827.093 793.789 818.615 749.316 784.279C705.587 750.517 689.563 695.572 666.835 645.217C640.796 587.527 602.866 532.921 607.367 469.787C612.584 396.603 635.336 317.933 693.368 273.041C751.896 227.766 833.918 226.748 907.061 237.952Z" fill="#F24757"/>
<path fill-rule="evenodd" clip-rule="evenodd" d="M1389.32 -155.251C1460.21 -168.188 1535.57 -205.884 1599.51 -172.644C1664.95 -138.623 1692.79 -59.3514 1711.19 12.075C1728.73 80.1855 1733 155.49 1700.01 217.606C1669.23 275.556 1599.28 294.392 1543.18 328.425C1492.83 358.968 1448.21 405.756 1389.32 406.077C1330.31 406.399 1278.23 369.435 1234.24 330.11C1193.66 293.844 1171.7 244.486 1151.85 193.815C1130.68 139.766 1101.44 84.0305 1115.84 27.7979C1130.58 -29.7918 1178.94 -71.8454 1228.34 -104.912C1276.23 -136.969 1332.62 -144.905 1389.32 -155.251Z" fill="#F24757"/>
<path d="M1393.76 158.978L1520.3 232.105V358.638L1393.76 285.598V158.978Z" fill="white"/>
<path d="M1330.41 122.458L1393.76 158.978V222.247L1330.41 185.727V122.458Z" fill="white"/>
<path d="M1457.03 132.232L1520.29 168.752V232.105L1457.03 195.498V132.232Z" fill="white"/>
<path d="M1294.15 290.228H1059.25L1216.31 383.672H1450.94L1294.15 290.228Z" fill="white"/>
<path d="M1174.73 161.465L1161.27 111.057C1160.44 107.998 1160.87 104.738 1162.44 101.989C1164.01 99.2405 1166.61 97.2273 1169.67 96.39L1169.93 96.3033C1172.98 95.4812 1176.24 95.9035 1178.99 97.4778C1181.74 99.0522 1183.75 101.651 1184.59 104.705L1186.22 110.792L1238.86 307.958L1232.33 330.348L1215.45 314.318L1174.73 161.465Z" fill="#9EF2EB"/>
<path d="M1382.96 342.78L1435.25 342.008L1505.89 383.672H1450.94L1382.96 342.78Z" fill="black"/>
<path d="M1351.93 323.577L1382.96 342.008L1435.25 341.322L1403.28 323.577H1351.93Z" fill="#9EF2EB"/>
<path d="M1322.86 306.945L1351.58 323.577L1403.28 323.062L1374.99 306.345L1322.86 306.945Z" fill="#FFDB43"/>
<path d="M1294.15 290.228L1322.86 306.945L1374.99 306.345L1347.72 290.228H1294.15Z" fill="#FBE5FB"/>
<path d="M1141.03 192.842L1061.56 199.1L1087.28 137.89C1089 133.836 1091.79 130.331 1095.36 127.757C1098.93 125.183 1103.14 123.639 1107.53 123.294C1111.92 122.949 1116.31 123.816 1120.24 125.8C1124.17 127.785 1127.48 130.81 1129.8 134.547L1147.64 163.265L1212.88 158.722C1214.3 158.622 1215.7 159.089 1216.78 160.021C1217.85 160.953 1218.51 162.273 1218.62 163.693V163.78C1218.72 165.2 1218.25 166.602 1217.32 167.679C1216.39 168.756 1215.07 169.419 1213.65 169.523C1215.07 169.424 1216.47 169.891 1217.55 170.823C1218.62 171.755 1219.29 173.075 1219.39 174.495V174.582C1219.49 176.002 1219.02 177.404 1218.09 178.481C1217.16 179.557 1215.84 180.22 1214.42 180.325C1215.84 180.225 1217.24 180.693 1218.32 181.625C1219.4 182.557 1220.06 183.878 1220.16 185.298V185.383C1220.26 186.804 1219.8 188.206 1218.86 189.282C1217.93 190.359 1216.61 191.022 1215.19 191.127L1143.78 196.185L1141.03 192.842Z" fill="#FBE5FB"/>
<path d="M1147.55 90.3967L1111.8 95.1983L1118.23 79L1117.46 77.885L1098.34 68.1983C1098.34 68.1983 1093.29 64.94 1094.66 60.655C1096.03 56.37 1098.69 55.5967 1098.69 55.5967L1109.49 49.7633C1110.53 49.1825 1111.69 48.8494 1112.88 48.7898C1114.07 48.7303 1115.25 48.9459 1116.35 49.42L1117.38 49.935C1120.38 51.9067 1120.8 54.65 1120.38 55.5933C1119.95 56.5367 1119 77.195 1119 77.195L1119.52 78.395L1147.55 90.3967Z" fill="#FFDB43"/>
<path d="M1127.49 193.785L1181.24 252.333L1156.21 307.198H1118.49L1140.52 262.792L1133.4 263.563C1131.99 263.751 1130.54 263.48 1129.29 262.792C1127.66 261.935 1125.52 260.307 1125.86 258.42C1125.9 257.706 1125.9 256.99 1125.86 256.277C1126.2 253.877 1128.69 252.077 1131 251.477L1136.49 249.933L1109.06 227.043L1085.74 307.202H1041.17L1050.43 293.828C1050.43 293.828 1055.57 284.662 1055.23 280.455C1054.7 276.651 1053.87 272.895 1052.74 269.225C1052.74 269.225 1050.68 262.11 1053.08 256.967C1054.44 254.005 1056.13 251.213 1058.14 248.65C1058.14 248.65 1066.97 239.22 1067.66 232.362C1068.26 225.503 1064.91 216.845 1064.91 216.845C1064.91 216.845 1064.31 209.558 1066.54 205.615C1068.01 203.056 1069.65 200.593 1071.43 198.242L1127.49 193.785Z" fill="#FFDB43"/>
<path d="M1045.1 335.063L1052.56 308.145L1088.56 307.373C1088.56 307.373 1100.82 308.145 1104.08 317.403C1106.03 322.897 1107.19 328.642 1107.51 334.463L1045.1 335.063Z" fill="black"/>
<path d="M1124.4 335.063L1132.03 307.373L1164.1 307.207C1164.1 307.207 1174.81 308.578 1179.7 315.873C1184.59 323.168 1184.16 328.217 1184.16 328.217V335.075L1124.4 335.063Z" fill="black"/>
<path d="M1393.76 222.247L1330.41 185.727V248.993L1393.76 285.598V222.247Z" fill="#FFDB43"/>
<path d="M1393.76 95.6267L1330.41 59.1067V122.373L1393.76 158.893V95.6267Z" fill="#FBE5FB"/>
<path d="M1457.63 132.747L1394.36 96.14V159.493L1457.63 196.013V132.747Z" fill="#9EF2EB"/>
<path d="M1358.78 94.1667L1380.9 129.058C1380.9 129.058 1384.07 134.03 1381.5 136.688C1378.94 139.347 1375.67 137.46 1374.22 136.345C1372.32 134.296 1370.59 132.088 1369.07 129.745L1349.95 98.455L1358.78 94.1667Z" fill="white"/>
<path d="M1343.78 80.4517C1343.78 80.4517 1341.3 82.595 1343.18 87.1384C1345.18 91.1609 1347.56 94.9799 1350.3 98.5417L1358.27 95.1117L1351.67 83.3667C1351.67 83.3667 1348.67 78.8234 1343.95 80.2" fill="black"/>
<path d="M1449.31 222.76L1470.4 294.087L1487.89 304.202L1466.8 232.877L1449.31 222.76Z" fill="black"/>
<path d="M1111.8 95.1117L1147.55 90.3117L1142.92 102.312L1146.35 112.427L1138.55 112.942C1138.55 112.942 1132.63 128.802 1117.38 123.315C1102.13 117.828 1109.32 101.113 1109.32 101.113L1111.8 95.1117Z" fill="white"/>
<path d="M1188.01 121.858C1191.19 121.858 1193.76 119.287 1193.76 116.115C1193.76 112.943 1191.19 110.372 1188.01 110.372C1184.84 110.372 1182.27 112.943 1182.27 116.115C1182.27 119.287 1184.84 121.858 1188.01 121.858Z" fill="#FBE5FB"/>
<path d="M1191.44 134.375C1194.62 134.375 1197.19 131.804 1197.19 128.632C1197.19 125.46 1194.62 122.888 1191.44 122.888C1188.27 122.888 1185.7 125.46 1185.7 128.632C1185.7 131.804 1188.27 134.375 1191.44 134.375Z" fill="#FBE5FB"/>
<path d="M1194.79 146.72C1197.86 146.72 1200.36 144.225 1200.36 141.148C1200.36 138.071 1197.86 135.577 1194.79 135.577C1191.71 135.577 1189.22 138.071 1189.22 141.148C1189.22 144.225 1191.71 146.72 1194.79 146.72Z" fill="#FBE5FB"/>
<path d="M1165.72 127.432L1171.47 149.378L1142.92 155.893L1130.4 135.747L1165.72 127.432Z" fill="#FBE5FB"/>
<path d="M1131.95 106.172C1133.32 106.172 1134.43 105.058 1134.43 103.685C1134.43 102.312 1133.32 101.198 1131.95 101.198C1130.57 101.198 1129.46 102.312 1129.46 103.685C1129.46 105.058 1130.57 106.172 1131.95 106.172Z" fill="black"/>
<path d="M1348.07 288.942H1235.08L1209.53 193.098L1215.2 192.67C1216.07 192.61 1216.92 192.379 1217.71 191.988C1218.49 191.598 1219.19 191.057 1219.76 190.395C1220.34 189.734 1220.77 188.966 1221.05 188.135C1221.32 187.305 1221.43 186.428 1221.37 185.555V185.468C1221.29 184.418 1220.97 183.4 1220.43 182.493C1219.9 181.586 1219.16 180.815 1218.28 180.24C1218.54 179.982 1218.79 179.812 1219.05 179.553C1220.22 178.202 1220.8 176.446 1220.68 174.667V174.582C1220.64 173.704 1220.41 172.845 1220.01 172.062C1219.61 171.279 1219.05 170.589 1218.37 170.038C1218.12 169.791 1217.83 169.588 1217.51 169.438C1218.31 168.753 1218.94 167.894 1219.35 166.929C1219.77 165.963 1219.96 164.915 1219.91 163.865V163.78C1219.87 162.902 1219.64 162.043 1219.24 161.26C1218.84 160.477 1218.28 159.788 1217.59 159.237C1216.24 158.072 1214.49 157.486 1212.71 157.607L1200.28 158.465L1197.44 147.748C1199.05 147.104 1200.36 145.893 1201.14 144.345C1201.91 142.797 1202.09 141.019 1201.65 139.347C1201.27 138.021 1200.52 136.831 1199.48 135.919C1198.45 135.007 1197.17 134.412 1195.81 134.203C1196.54 133.661 1197.12 132.957 1197.53 132.147C1198 131.353 1198.3 130.473 1198.42 129.56C1198.53 128.646 1198.46 127.718 1198.21 126.832C1197.83 125.505 1197.08 124.316 1196.05 123.403C1195.02 122.491 1193.74 121.895 1192.38 121.687C1193.52 120.772 1194.34 119.527 1194.75 118.123C1195.15 116.719 1195.11 115.225 1194.63 113.845C1194.15 112.465 1193.26 111.266 1192.07 110.414C1190.89 109.562 1189.47 109.098 1188.01 109.085C1187.69 109.071 1187.37 109.1 1187.06 109.172L1185.78 104.457C1184.87 101.059 1182.65 98.161 1179.61 96.3983C1178.11 95.5158 1176.45 94.9466 1174.73 94.7255C1173 94.5043 1171.25 94.6357 1169.58 95.1117L1169.32 95.1983C1165.94 96.1153 1163.06 98.3345 1161.31 101.371C1159.56 104.407 1159.08 108.013 1159.98 111.4L1164.01 126.488L1130.83 134.032L1130.75 133.947C1128.76 130.702 1126.06 127.947 1122.86 125.888H1123.12C1126.46 125.898 1129.74 124.907 1132.52 123.044C1135.3 121.181 1137.46 118.529 1138.72 115.43L1139.24 114.228L1147.9 113.628L1144.04 102.398C1144.9 100.255 1148.76 90.9117 1148.76 90.9117L1149.27 89.7117L1119.78 77.545L1121.24 56.1983C1121.33 55.0778 1121.19 53.9504 1120.82 52.8883C1120.45 51.8263 1119.86 50.8533 1119.1 50.0317C1118.32 49.184 1117.38 48.5083 1116.33 48.0483C1115.28 47.5883 1114.15 47.3544 1113 47.3617C1111.66 47.3689 1110.34 47.6921 1109.14 48.305L1097.31 54.5633C1095.97 55.2738 1094.86 56.3385 1094.08 57.6408C1093.31 58.9432 1092.91 60.4331 1092.93 61.9474C1092.95 63.4617 1093.38 64.9422 1094.18 66.2266C1094.98 67.5111 1096.12 68.5501 1097.48 69.23L1116.77 78.9183L1107.35 102.398C1105.93 105.796 1105.67 109.563 1106.6 113.123C1107.53 116.684 1109.6 119.843 1112.49 122.117C1110.78 121.916 1109.06 121.887 1107.35 122.03C1102.7 122.357 1098.24 123.975 1094.47 126.702C1090.7 129.429 1087.77 133.156 1086 137.462L1059.5 200.557L1068.5 199.872L1068.16 200.213C1065.68 203.333 1064.06 207.048 1063.45 210.988C1062.85 214.928 1063.29 218.957 1064.73 222.675L1064.81 222.932C1066.25 226.548 1066.59 230.507 1065.8 234.317C1065.01 238.126 1063.11 241.62 1060.36 244.363L1056.93 247.793C1053.94 250.84 1051.86 254.665 1050.94 258.832C1050.01 263 1050.28 267.343 1051.7 271.368L1052.38 273.425C1053.47 276.438 1053.82 279.668 1053.41 282.844C1052.99 286.021 1051.83 289.052 1050 291.685L1038.33 308.403H1050.85L1043.13 336.263H1108.47V329.063C1108.45 326.195 1107.92 323.352 1106.92 320.667L1123.98 330.697L1122.43 336.183H1133.32L1215.36 384.62L1215.7 384.787H1510.35L1348.41 289.2L1348.07 288.942ZM1095.77 62.0217C1095.76 60.9848 1096.04 59.9648 1096.56 59.0729C1097.09 58.181 1097.86 57.4513 1098.77 56.9633L1110.61 50.705C1111.43 50.2666 1112.34 50.0311 1113.27 50.0183C1114.85 50.0474 1116.36 50.694 1117.47 51.82C1118.02 52.378 1118.44 53.0533 1118.69 53.7954C1118.94 54.5375 1119.02 55.3271 1118.93 56.105L1117.56 76.5083L1098.94 67.1667C1098 66.6745 1097.21 65.9365 1096.65 65.0309C1096.09 64.1252 1095.79 63.0855 1095.77 62.0217ZM1119.86 80.4517V80.285L1142.92 89.8L1113.86 93.5683L1119.35 80.195L1119.86 80.4517ZM1109.75 114.4C1109.02 112.661 1108.65 110.796 1108.65 108.913C1108.65 107.03 1109.02 105.166 1109.75 103.427L1112.67 96.3117L1145.75 92.025L1142.41 100C1141.55 102.143 1141.29 102.658 1141.72 103.087L1144.47 111.23L1137.52 111.658L1136.41 114.317C1136.32 114.573 1136.15 114.832 1136.06 115.088C1135.35 115.334 1134.59 115.45 1133.83 115.432C1132.01 115.442 1130.26 114.77 1128.91 113.549C1127.56 112.327 1126.72 110.645 1126.55 108.833V108.062H1123.98C1123.96 108.407 1123.99 108.752 1124.06 109.09C1124.31 111.531 1125.46 113.793 1127.28 115.439C1129.1 117.086 1131.47 118 1133.92 118.007H1134.26C1132.92 119.644 1131.24 120.963 1129.32 121.868C1127.41 122.772 1125.32 123.239 1123.2 123.235C1121.32 123.246 1119.45 122.867 1117.72 122.122L1117.46 122.035C1115.72 121.352 1114.14 120.323 1112.82 119.01C1111.49 117.698 1110.45 116.129 1109.75 114.4ZM1355.18 324.862H1403.71L1430.54 340.722H1382.02L1355.18 324.862ZM1350.81 322.29L1327.15 308.317H1375.67L1399.33 322.29H1350.81ZM1332.21 299.143L1322.52 305.667L1300.32 292.55L1332.21 299.143ZM1308.63 291.515H1343.53L1335.3 297.087L1308.63 291.515ZM1335.81 299.83L1363.84 305.663H1327.15L1335.81 299.83ZM1338.72 297.858L1347.72 291.772L1368.47 304.03L1338.72 297.858ZM1237.48 308.06L1231.65 328.035L1216.65 313.718L1184.93 194.898L1206.87 193.357L1237.48 308.06ZM1142.92 197.813L1182.27 194.98L1207.3 288.937H1165.3L1182.71 252.503L1129.81 194.985L1140.35 194.127L1142.92 197.813ZM1199.07 139.947C1199.23 140.515 1199.28 141.11 1199.21 141.696C1199.13 142.282 1198.94 142.848 1198.65 143.359C1198.35 143.871 1197.96 144.318 1197.49 144.674C1197.02 145.03 1196.48 145.289 1195.91 145.433C1195.51 145.537 1195.11 145.593 1194.71 145.6C1193.92 145.584 1193.15 145.365 1192.48 144.964C1191.8 144.563 1191.24 143.994 1190.85 143.312C1190.47 142.63 1190.26 141.859 1190.26 141.074C1190.26 140.289 1190.46 139.517 1190.84 138.833C1191.13 138.317 1191.52 137.866 1192 137.511C1192.47 137.157 1193.01 136.906 1193.59 136.775C1193.98 136.672 1194.38 136.616 1194.79 136.608C1195.77 136.618 1196.72 136.95 1197.49 137.554C1198.27 138.157 1198.82 138.997 1199.07 139.947ZM1195.73 127.432C1195.89 128.002 1195.94 128.6 1195.87 129.19C1195.79 129.779 1195.6 130.347 1195.3 130.86C1195.01 131.377 1194.62 131.827 1194.15 132.182C1193.68 132.536 1193.13 132.787 1192.56 132.918C1192.17 133.021 1191.76 133.077 1191.36 133.085C1190.28 133.062 1189.24 132.652 1188.44 131.929C1187.64 131.206 1187.12 130.22 1186.99 129.149C1186.85 128.078 1187.11 126.994 1187.71 126.095C1188.3 125.196 1189.2 124.542 1190.24 124.252C1190.64 124.148 1191.04 124.092 1191.44 124.085C1192.43 124.095 1193.38 124.429 1194.15 125.033C1194.93 125.638 1195.48 126.481 1195.73 127.432ZM1192.39 114.915C1192.55 115.483 1192.59 116.078 1192.52 116.664C1192.45 117.25 1192.26 117.816 1191.96 118.327C1191.67 118.839 1191.27 119.286 1190.8 119.642C1190.33 119.998 1189.79 120.257 1189.22 120.402C1188.83 120.505 1188.42 120.561 1188.02 120.568C1187.23 120.552 1186.47 120.332 1185.79 119.93C1185.12 119.528 1184.56 118.958 1184.17 118.276C1183.78 117.593 1183.58 116.822 1183.57 116.036C1183.57 115.251 1183.78 114.479 1184.16 113.795C1184.45 113.278 1184.84 112.828 1185.31 112.473C1185.79 112.119 1186.33 111.869 1186.91 111.738C1187.3 111.634 1187.7 111.579 1188.11 111.572C1189.08 111.612 1190.01 111.957 1190.78 112.556C1191.55 113.156 1192.11 113.981 1192.39 114.915ZM1170.01 97.5983L1170.27 97.5117C1173.01 96.7884 1175.92 97.1752 1178.38 98.5878C1180.83 100.001 1182.63 102.325 1183.39 105.057L1184.67 109.857C1183.54 110.488 1182.59 111.405 1181.93 112.515C1181.46 113.308 1181.16 114.189 1181.04 115.102C1180.92 116.016 1180.99 116.944 1181.24 117.83C1181.62 119.156 1182.37 120.346 1183.4 121.257C1184.44 122.169 1185.71 122.765 1187.08 122.973C1185.99 123.829 1185.19 124.985 1184.76 126.297C1184.33 127.608 1184.3 129.017 1184.67 130.347C1185.04 131.673 1185.79 132.862 1186.83 133.774C1187.86 134.686 1189.14 135.282 1190.5 135.49C1189.78 136.033 1189.19 136.737 1188.79 137.547C1188.32 138.34 1188.01 139.22 1187.9 140.134C1187.78 141.048 1187.85 141.976 1188.1 142.862C1188.5 144.355 1189.38 145.677 1190.6 146.622C1191.83 147.567 1193.33 148.083 1194.87 148.092H1194.96L1197.7 158.55L1175.76 160.093L1162.55 110.715C1161.81 107.987 1162.18 105.077 1163.58 102.619C1164.98 100.162 1167.29 98.357 1170.01 97.5983ZM1173.1 160.265L1148.24 161.98L1144.98 156.667L1170.61 150.833L1173.1 160.265ZM1164.7 128.975L1169.83 148.348L1143.43 154.348L1132.29 136.262L1164.7 128.975ZM1088.4 138.405C1090.02 134.572 1092.66 131.258 1096.04 128.824C1099.41 126.391 1103.39 124.931 1107.54 124.604C1111.69 124.277 1115.85 125.096 1119.56 126.972C1123.28 128.847 1126.4 131.706 1128.61 135.238L1146.87 164.643L1212.88 160.015C1213.42 159.967 1213.97 160.034 1214.48 160.211C1215 160.388 1215.47 160.672 1215.88 161.043C1216.28 161.4 1216.61 161.835 1216.85 162.322C1217.08 162.808 1217.22 163.337 1217.25 163.877V163.963C1217.32 165.042 1216.96 166.105 1216.26 166.923C1215.55 167.742 1214.55 168.249 1213.48 168.335L1188.53 170.05L1188.7 172.622L1213.64 170.907C1214.19 170.859 1214.73 170.927 1215.25 171.104C1215.77 171.281 1216.24 171.564 1216.64 171.935C1217.05 172.292 1217.38 172.727 1217.61 173.213C1217.85 173.7 1217.99 174.229 1218.01 174.768V174.853C1218.06 175.397 1217.99 175.945 1217.82 176.462C1217.64 176.979 1217.36 177.453 1216.99 177.853C1216.63 178.259 1216.19 178.589 1215.71 178.824C1215.22 179.059 1214.69 179.195 1214.15 179.223L1189.21 180.938L1189.37 183.51L1214.33 181.783C1215.41 181.71 1216.48 182.065 1217.29 182.771C1218.11 183.477 1218.62 184.478 1218.71 185.555V185.64C1218.78 186.719 1218.42 187.783 1217.72 188.601C1217.01 189.42 1216.01 189.927 1214.93 190.013L1144.21 195.07L1117.29 156.833L1115.15 158.29L1138.64 191.638L1063.45 197.553L1088.4 138.405ZM1052.31 293.228C1054.36 290.26 1055.68 286.847 1056.15 283.271C1056.63 279.694 1056.25 276.056 1055.05 272.653L1054.37 270.597C1053.11 267.025 1052.88 263.173 1053.7 259.476C1054.52 255.779 1056.35 252.386 1059 249.678L1062.43 246.25C1065.5 243.129 1067.6 239.188 1068.48 234.901C1069.37 230.613 1068.99 226.162 1067.4 222.083L1067.32 221.827C1066.02 218.54 1065.62 214.971 1066.15 211.479C1066.67 207.987 1068.11 204.695 1070.32 201.937L1072.12 199.708L1126.64 195.422L1179.71 253.117L1154.5 306H1120.46L1142.24 260.822L1132.72 262.365C1132.08 262.481 1131.42 262.464 1130.79 262.317C1130.15 262.17 1129.56 261.894 1129.03 261.508C1127.96 260.766 1127.22 259.627 1126.98 258.342V258.255C1126.74 256.994 1127.02 255.692 1127.74 254.632C1128.46 253.573 1129.57 252.841 1130.83 252.597L1138.81 251.14L1110.43 225.847L1113.6 214.702L1111.11 214.017L1084.63 305.917H1043.48L1052.31 293.228ZM1109.67 228.59L1133.16 249.423L1130.32 249.938C1128.4 250.326 1126.71 251.448 1125.61 253.065C1124.5 254.682 1124.07 256.667 1124.41 258.597V258.682C1124.76 260.649 1125.87 262.401 1127.49 263.568C1129.11 264.71 1131.11 265.172 1133.07 264.855L1137.7 264.083L1125.7 289.03H1092.09L1109.67 228.59ZM1106.24 333.778H1046.82L1053.85 308.488H1085.57C1091.05 308.488 1096.31 310.666 1100.18 314.541C1104.06 318.417 1106.24 323.674 1106.24 329.155V333.785L1106.24 333.778ZM1104.95 316.462C1103.02 313.47 1100.42 310.967 1097.35 309.152C1094.28 307.337 1090.84 306.259 1087.29 306.002L1091.49 291.6H1124.58L1116.43 308.488H1130.49L1125 328.292L1104.95 316.462ZM1133.07 308.488H1162.13C1167.61 308.488 1172.86 310.666 1176.74 314.541C1180.61 318.417 1182.79 323.674 1182.79 329.155V333.785H1125.96L1133.07 308.488ZM1138.64 336.35H1185.44V329.148C1185.44 322.988 1182.99 317.082 1178.63 312.726C1174.28 308.371 1168.37 305.922 1162.21 305.917H1157.32L1164.18 291.6H1208.08L1214.33 315.09L1232.94 332.833L1233.19 331.977C1238.93 333.943 1244.85 335.322 1250.86 336.092C1250.89 338.911 1251.57 341.684 1252.85 344.197C1254.13 346.709 1255.97 348.893 1258.23 350.578C1262.73 353.83 1267.83 356.16 1273.23 357.437C1284.4 360.517 1295.94 362.074 1307.52 362.067C1315.29 362.084 1323.04 361.366 1330.67 359.923L1330.24 357.437C1311.55 360.863 1292.32 360.014 1274 354.952C1268.93 353.778 1264.15 351.591 1259.95 348.522C1258.04 347.096 1256.47 345.266 1255.36 343.162C1254.25 341.057 1253.62 338.733 1253.52 336.355C1268.24 338.067 1283.16 336.154 1296.98 330.783C1300.54 329.499 1303.8 327.516 1306.58 324.95C1307.93 323.757 1308.86 322.165 1309.24 320.407C1309.42 319.061 1309.23 317.692 1308.7 316.441C1308.18 315.19 1307.33 314.102 1306.24 313.29C1304.23 311.873 1301.9 310.962 1299.47 310.633C1289.44 308.833 1278.21 311.148 1266.12 317.492C1262.47 319.244 1259.14 321.591 1256.26 324.435C1253.78 326.913 1252.03 330.027 1251.2 333.435C1245.33 332.664 1239.56 331.285 1233.97 329.32L1240.14 307.888L1235.77 291.343H1293.8L1447.6 382.215H1216.65L1138.64 336.35ZM1253.78 333.95C1254.52 331.104 1256 328.503 1258.06 326.405C1260.77 323.763 1263.9 321.59 1267.32 319.977C1278.89 313.89 1289.52 311.66 1298.95 313.375C1300.99 313.61 1302.94 314.346 1304.62 315.518C1305.34 316.044 1305.9 316.748 1306.26 317.56C1306.62 318.372 1306.76 319.264 1306.67 320.147C1306.35 321.379 1305.66 322.484 1304.7 323.313C1302.13 325.627 1299.13 327.405 1295.86 328.542C1282.48 333.739 1268.03 335.595 1253.77 333.95H1253.78ZM1452.66 382.385L1386.4 343.293H1434.92L1501.19 382.472H1452.66L1452.66 382.385Z" fill="black"/>
<path d="M1411.68 187.527L1425.4 195.413L1426.68 193.185L1409.11 183.068V200.9H1411.68V187.527Z" fill="black"/>
<path d="M1411.68 262.882H1409.11V279.255L1425.4 288.685L1426.68 286.457L1411.68 277.798V262.882Z" fill="black"/>
<path d="M1426.51 267.253L1419.56 263.223L1418.28 265.453L1435.95 275.655L1437.23 273.425L1428.74 268.538L1436.89 251.65L1460.64 265.367L1469.38 294.943L1490.13 306.943L1467.83 232.018L1448.72 220.96L1426.51 267.253ZM1465.69 233.733L1485.75 301.458L1471.52 293.228L1451.46 225.5L1465.69 233.733ZM1459.52 261.767L1438 249.333L1449.06 226.358L1459.52 261.767Z" fill="black"/>
<path d="M1502.38 330.177L1488.66 322.205L1487.38 324.433L1504.95 334.635V316.718H1502.38V330.177Z" fill="black"/>
<path d="M1502.38 254.737H1504.95V238.363L1488.66 229.018L1487.38 231.248L1502.38 239.82V254.737Z" fill="black"/>
<path d="M1458.31 131.46L1395.05 94.94L1329.21 56.8767V249.765L1392.48 286.285L1521.67 360.868V168.067L1458.31 131.46ZM1455.74 133.003V193.27L1412.36 168.238L1395.05 158.207V97.855L1455.74 133.003ZM1331.69 121.687V61.3333L1392.39 96.3967V156.75L1362.13 139.262L1331.69 121.687ZM1331.69 184.955V124.688L1362.04 142.177L1392.39 159.667V220.017L1340.95 190.27L1331.69 184.955ZM1331.69 248.307V187.955L1339.75 192.585L1392.39 223.018V283.37L1331.69 248.307ZM1519.01 232.79V356.41L1394.96 284.833V161.208L1455.66 196.27L1477.6 208.958L1519.01 232.79ZM1458.31 194.813V134.462L1519 169.523V229.877L1458.31 194.813Z" fill="black"/>
<path d="M1381.42 128.203L1360.67 95.455L1363.07 94.4267L1362.04 92.025L1359.2 93.2267L1353.9 84.8333C1351.67 81.31 1348.24 79 1345.41 79C1344.79 78.9885 1344.18 79.1055 1343.61 79.3433H1343.53C1342.97 79.5936 1342.48 79.9605 1342.08 80.419C1341.68 80.8775 1341.38 81.4168 1341.21 82C1340.94 83.3618 1340.95 84.7648 1341.25 86.1217C1341.54 87.4786 1342.11 88.7602 1342.92 89.8867L1348.07 97.9467L1345.67 98.975L1346.7 101.375L1349.53 100.175L1370.53 133.352C1372.76 136.867 1376.19 139.185 1379.02 139.185C1379.63 139.196 1380.25 139.079 1380.82 138.842H1380.9C1381.46 138.591 1381.95 138.224 1382.35 137.765C1382.75 137.306 1383.05 136.767 1383.22 136.183C1383.46 134.8 1383.42 133.383 1383.12 132.013C1382.81 130.643 1382.23 129.349 1381.42 128.203ZM1345.07 88.425C1343.86 86.7683 1343.34 84.7121 1343.61 82.6817C1343.66 82.4556 1343.77 82.2451 1343.92 82.0667C1344.07 81.8882 1344.25 81.7467 1344.47 81.6533H1344.55C1344.8 81.5567 1345.06 81.5004 1345.33 81.4867C1347.04 81.4867 1349.7 83.115 1351.67 86.115L1356.81 94.1733L1350.47 96.8333L1345.07 88.425ZM1380.64 135.318C1380.59 135.545 1380.49 135.755 1380.34 135.934C1380.19 136.112 1380 136.253 1379.79 136.347H1379.7C1378.16 136.947 1374.9 135.403 1372.59 131.803L1351.83 99.055L1358.18 96.3983L1379.18 129.575C1379.8 130.383 1380.25 131.308 1380.5 132.296C1380.75 133.283 1380.8 134.311 1380.64 135.318Z" fill="black"/>
<path d="M1283.09 113.887H1285.66V99.7417H1299.72V97.17H1285.66V83.11H1283.09V97.17H1269.03V99.7417H1283.09V113.887Z" fill="black"/>
<path d="M1264.14 239.563C1265.62 239.563 1267.06 239.126 1268.28 238.306C1269.51 237.487 1270.47 236.322 1271.03 234.959C1271.6 233.596 1271.74 232.097 1271.45 230.65C1271.17 229.203 1270.46 227.874 1269.41 226.831C1268.37 225.788 1267.04 225.078 1265.6 224.79C1264.15 224.502 1262.65 224.65 1261.29 225.214C1259.92 225.779 1258.76 226.735 1257.94 227.961C1257.12 229.188 1256.68 230.63 1256.68 232.105C1256.68 234.083 1257.47 235.979 1258.87 237.377C1260.27 238.776 1262.16 239.562 1264.14 239.563ZM1264.14 227.133C1264.78 227.133 1265.42 227.259 1266.01 227.504C1266.6 227.75 1267.14 228.109 1267.6 228.563C1268.05 229.017 1268.41 229.555 1268.66 230.148C1268.9 230.741 1269.03 231.377 1269.03 232.018C1269.03 232.985 1268.74 233.93 1268.2 234.734C1267.67 235.537 1266.9 236.164 1266.01 236.534C1265.12 236.904 1264.14 237.001 1263.19 236.813C1262.24 236.625 1261.37 236.159 1260.69 235.476C1260 234.793 1259.54 233.922 1259.35 232.974C1259.16 232.026 1259.26 231.043 1259.63 230.15C1259.99 229.257 1260.62 228.494 1261.42 227.957C1262.23 227.42 1263.17 227.133 1264.14 227.133Z" fill="black"/>
<path d="M74.695 242.395C78.3815 242.395 81.37 239.406 81.37 235.72C81.37 232.033 78.3815 229.045 74.695 229.045C71.0085 229.045 68.02 232.033 68.02 235.72C68.02 239.406 71.0085 242.395 74.695 242.395Z" fill="white"/>
<path d="M495.23 363.567H446.413V425.705H495.23V363.567Z" fill="#52BBEF"/>
<path d="M508.475 363.567H495.155V425.705H508.475V363.567Z" fill="white"/>
<path d="M446.413 363.567H384.275V425.705H446.413V363.567Z" fill="#FBE5FB"/>
<path d="M446.413 425.703H384.275V487.842H446.413V425.703Z" fill="#FBE5FB"/>
<path d="M480.645 251.347V266.973H27.45V251.347C27.4575 244.44 30.2045 237.819 35.0883 232.936C39.9721 228.053 46.5937 225.307 53.4999 225.3H454.598C458.019 225.298 461.408 225.97 464.569 227.278C467.73 228.586 470.602 230.504 473.021 232.924C475.441 235.343 477.359 238.215 478.667 241.376C479.975 244.537 480.647 247.925 480.645 251.347Z" fill="#FFDB43"/>
<path d="M103.132 311.252C108.844 311.252 113.475 306.621 113.475 300.908C113.475 295.196 108.844 290.565 103.132 290.565C97.4193 290.565 92.7884 295.196 92.7884 300.908C92.7884 306.621 97.4193 311.252 103.132 311.252Z" fill="black"/>
<path d="M86.1633 326.357C91.8757 326.357 96.5066 321.726 96.5066 316.013C96.5066 310.301 91.8757 305.67 86.1633 305.67C80.4508 305.67 75.8199 310.301 75.8199 316.013C75.8199 321.726 80.4508 326.357 86.1633 326.357Z" fill="black"/>
<path d="M66.5184 316.013C72.2308 316.013 76.8617 311.382 76.8617 305.67C76.8617 299.958 72.2308 295.327 66.5184 295.327C60.8059 295.327 56.175 299.958 56.175 305.67C56.175 311.382 60.8059 316.013 66.5184 316.013Z" fill="black"/>
<path d="M83.3366 254.768C88.1038 254.768 91.9683 250.904 91.9683 246.137C91.9683 241.37 88.1038 237.505 83.3366 237.505C78.5695 237.505 74.705 241.37 74.705 246.137C74.705 250.904 78.5695 254.768 83.3366 254.768Z" fill="white"/>
<path d="M112.358 254.768C117.125 254.768 120.99 250.904 120.99 246.137C120.99 241.37 117.125 237.505 112.358 237.505C107.591 237.505 103.727 241.37 103.727 246.137C103.727 250.904 107.591 254.768 112.358 254.768Z" fill="white"/>
<path d="M199.575 372.57L172.635 387L158.198 360.367H184.542V343.622H121.288L111.465 380.455H129.333L131.045 374.055L152.167 407.843C154.49 411.426 157.646 414.394 161.365 416.493C165.084 418.593 169.255 419.761 173.523 419.898C178.377 419.95 183.164 418.773 187.44 416.477L203.067 408.215L217.057 437.462L255.977 418.857L233.652 383.51C233.652 383.51 231.047 376.887 220.407 372.198C217.09 370.849 213.533 370.186 209.953 370.249C206.372 370.313 202.842 371.103 199.575 372.57Z" fill="#FBE5FB"/>
<path d="M304.575 480.697H318.193C320.838 480.697 323.374 479.646 325.244 477.776C327.114 475.906 328.165 473.37 328.165 470.725V470.5C328.165 469.191 327.907 467.894 327.406 466.684C326.905 465.474 326.17 464.375 325.244 463.449C324.318 462.523 323.219 461.788 322.009 461.287C320.799 460.786 319.503 460.528 318.193 460.528H304.65C303.34 460.528 302.044 460.786 300.834 461.287C299.624 461.788 298.525 462.523 297.599 463.449C296.673 464.375 295.938 465.474 295.437 466.684C294.936 467.894 294.678 469.191 294.678 470.5V470.723C294.663 472.031 294.909 473.328 295.4 474.54C295.891 475.751 296.618 476.853 297.539 477.781C298.46 478.709 299.556 479.445 300.764 479.946C301.972 480.446 303.268 480.701 304.575 480.697Z" fill="#52BBEF"/>
<path d="M185.063 480.697H266.397C269.041 480.697 271.578 479.646 273.448 477.776C275.318 475.906 276.368 473.37 276.368 470.725V470.5C276.368 469.19 276.11 467.894 275.609 466.684C275.108 465.474 274.374 464.375 273.448 463.449C272.522 462.523 271.422 461.788 270.213 461.287C269.003 460.786 267.706 460.528 266.397 460.528H185.063C183.754 460.528 182.457 460.786 181.247 461.287C180.037 461.788 178.938 462.523 178.012 463.449C177.086 464.375 176.352 465.474 175.851 466.684C175.349 467.894 175.092 469.19 175.092 470.5V470.723C175.104 473.364 176.158 475.894 178.026 477.761C179.893 479.629 182.422 480.684 185.063 480.697Z" fill="#FBE5FB"/>
<path d="M65.5501 480.697H146.143C148.788 480.697 151.324 479.646 153.194 477.776C155.065 475.906 156.115 473.37 156.115 470.725V470.5C156.115 469.19 155.857 467.894 155.356 466.684C154.855 465.474 154.12 464.375 153.194 463.449C152.269 462.523 151.169 461.788 149.959 461.287C148.75 460.786 147.453 460.528 146.143 460.528H65.5501C64.2406 460.528 62.9439 460.786 61.7341 461.287C60.5243 461.788 59.425 462.523 58.4991 463.449C57.5731 464.375 56.8386 465.474 56.3375 466.684C55.8364 467.894 55.5784 469.19 55.5784 470.5V470.723C55.5782 472.033 55.836 473.33 56.337 474.54C56.838 475.75 57.5725 476.849 58.4985 477.775C59.4244 478.702 60.5238 479.436 61.7337 479.937C62.9436 480.439 64.2405 480.697 65.5501 480.697Z" fill="#FFDB43"/>
<path d="M65.5501 440.667H187.892C190.536 440.667 193.073 439.616 194.943 437.746C196.813 435.876 197.863 433.34 197.863 430.695V430.472C197.863 427.827 196.813 425.291 194.943 423.421C193.073 421.551 190.536 420.5 187.892 420.5H65.5501C62.9054 420.5 60.3691 421.551 58.4991 423.421C56.629 425.291 55.5784 427.827 55.5784 430.472V430.695C55.5784 433.34 56.629 435.876 58.4991 437.746C60.3691 439.616 62.9054 440.667 65.5501 440.667Z" fill="#52BBEF"/>
<path d="M446.413 363.567H384.275V425.705H446.413V363.567Z" fill="#FFDB43"/>
<path d="M446.413 425.703H384.275V487.842H446.413V425.703Z" fill="#FBE5FB"/>
<path d="M228.667 360.367H184.542V343.622H228.225C228.225 343.622 236.485 344.143 236.485 352.107C236.485 360.07 228.667 360.367 228.667 360.367Z" fill="white"/>
<path d="M272.353 296.74H201.137V343.473H272.353V296.74Z" fill="black"/>
<path d="M111.392 380.458L103.95 408.215H84.4501C82.8832 408.259 81.3892 408.886 80.2605 409.973C79.1319 411.061 78.45 412.531 78.3484 414.095C77.9017 420.345 84.7484 420.495 84.7484 420.495L118.533 420.568L129.25 380.458H111.392Z" fill="white"/>
<path d="M216.913 437.462L227.555 459.563L280.613 435.75L239.535 426.672L216.913 437.462Z" fill="black"/>
<path d="M439.12 188.093H354.583C354.583 188.093 338.733 188.242 331.292 201.488C329.272 205.088 328.077 209.092 327.794 213.21C327.511 217.328 328.146 221.457 329.653 225.3L365.597 296.74L407.263 277.24L380.257 225.45L415.382 225.227C415.382 225.227 430.488 224.632 437.557 210.56C439.427 207.151 440.536 203.377 440.806 199.498C441.076 195.619 440.501 191.728 439.12 188.093Z" fill="#FBE5FB"/>
<path d="M348.333 166.587L348.557 166.288L350.268 164.288L329.507 152.455L343.5 126.178C343.5 126.178 350.272 111.147 365.833 110.773C370.1 110.577 374.353 111.392 378.246 113.151C382.138 114.91 385.56 117.563 388.233 120.895L429.087 173.358L434.817 180.725L437.347 184.447L439.058 188.167L364.94 187.943L348.333 166.587Z" fill="#52BBEF"/>
<path d="M317.3 104.152C317.3 104.152 307.328 94.9983 312.538 84.6517C318.863 71.9267 329.505 75.1267 330.845 74.985C332.557 74.8367 336.723 77.44 337.69 78.11C338.98 79.2461 340.197 80.4624 341.333 81.7517L317.3 104.152Z" fill="#52BBEF"/>
<path d="M304.948 213.468H218.477L221.898 225.003H308.297L304.948 213.468Z" fill="#52BBEF"/>
<path d="M150.385 154.605L170.923 225.003H221.898L218.477 213.468H178.365L161.993 154.605H150.385Z" fill="black"/>
<path d="M232.02 154.605H161.993L178.365 213.468H249.21L232.69 154.605L231.945 154.085" fill="white"/>
<path d="M368.945 342.655L426.612 314.377L407.263 277.318L380.92 289.745L385.753 310.73L358.963 324.647C356.626 325.941 354.88 328.088 354.089 330.64C353.299 333.191 353.525 335.95 354.722 338.338C354.722 338.338 359.5 347.195 368.945 342.655Z" fill="black"/>
<path d="M133.79 315.717L131.26 310.73C130.353 308.981 128.957 307.534 127.242 306.563L113.548 327.92L121.437 343.473H149.045L139 325.093L142.795 320.333L133.79 315.717Z" fill="white"/>
<path d="M112.5 307.753C110.973 309.407 109.898 311.425 109.376 313.614C108.855 315.803 108.906 318.089 109.523 320.253L113.542 327.92L127.235 306.563C124.985 305.129 122.328 304.468 119.668 304.683C117.008 304.898 114.491 305.976 112.5 307.753Z" fill="black"/>
<path d="M351.682 115.983C349.138 118.346 346.843 120.964 344.835 123.797L341.263 130.42L330.622 118.737C330.622 118.737 329.43 120.002 327.198 121.937C325.032 123.872 321.988 121.788 321.988 121.788C321.178 120.962 320.706 119.862 320.665 118.706C320.623 117.549 321.016 116.419 321.765 115.537L324.892 112.56L317.3 104.3L341.263 81.8333L367.01 110.7C361.487 110.885 356.146 112.726 351.682 115.983Z" fill="white"/>
<path d="M329.5 152.373L310.528 188.093L303.162 183.032C300.768 181.329 297.914 180.395 294.977 180.353C290.213 180.353 286.567 185.187 285.45 186.827C284.333 188.467 275.478 201.265 275.478 201.265C275.478 201.265 271.683 207.962 277.86 211.765C277.86 211.765 283.738 213.932 287.013 209.087L290.735 203.505L304.427 212.287C307.552 213.947 311.1 214.643 314.622 214.287C320.723 213.767 325.04 208.707 327.422 204.62C329.803 200.453 350.267 164.287 350.267 164.287L329.5 152.373Z" fill="white"/>
<path d="M54.3883 255.885C56.3163 255.885 58.2011 255.313 59.8042 254.242C61.4073 253.171 62.6567 251.648 63.3946 249.867C64.1324 248.086 64.3254 246.126 63.9493 244.235C63.5732 242.344 62.6447 240.607 61.2814 239.244C59.9181 237.88 58.1811 236.952 56.2901 236.576C54.3991 236.2 52.439 236.393 50.6578 237.13C48.8765 237.868 47.354 239.118 46.2828 240.721C45.2117 242.324 44.64 244.209 44.64 246.137C44.6487 248.719 45.6786 251.194 47.5049 253.02C49.3311 254.846 51.8056 255.876 54.3883 255.885ZM54.3883 238.622C55.875 238.622 57.3283 239.063 58.5645 239.889C59.8006 240.715 60.7641 241.889 61.3329 243.262C61.9018 244.636 62.0506 246.147 61.7604 247.605C61.4702 249.064 60.7542 250.403 59.7028 251.454C58.6514 252.505 57.3119 253.221 55.8537 253.511C54.3955 253.801 52.8841 253.652 51.5106 253.082C50.1372 252.513 48.9633 251.549 48.1376 250.313C47.3119 249.077 46.8713 247.623 46.8716 246.137C46.8791 244.146 47.6735 242.238 49.0815 240.83C50.4896 239.423 52.3972 238.629 54.3883 238.622Z" fill="black"/>
<path d="M83.3334 255.885C85.2615 255.885 87.1462 255.313 88.7493 254.242C90.3524 253.171 91.6019 251.648 92.3397 249.867C93.0775 248.086 93.2706 246.126 92.8944 244.235C92.5183 242.344 91.5899 240.607 90.2265 239.244C88.8632 237.88 87.1262 236.952 85.2352 236.576C83.3442 236.2 81.3842 236.393 79.6029 237.13C77.8216 237.868 76.2991 239.118 75.228 240.721C74.1568 242.324 73.5851 244.209 73.5851 246.137C73.5939 248.719 74.6237 251.194 76.45 253.02C78.2763 254.846 80.7507 255.876 83.3334 255.885ZM83.3334 238.622C84.8201 238.622 86.2735 239.063 87.5096 239.889C88.7458 240.715 89.7092 241.889 90.2781 243.262C90.8469 244.636 90.9957 246.147 90.7055 247.605C90.4154 249.064 89.6993 250.403 88.6479 251.454C87.5965 252.505 86.257 253.221 84.7988 253.511C83.3406 253.801 81.8292 253.652 80.4558 253.082C79.0823 252.513 77.9085 251.549 77.0827 250.313C76.257 249.077 75.8164 247.623 75.8167 246.137C75.8238 244.145 76.618 242.238 78.0262 240.83C79.4344 239.422 81.3422 238.628 83.3334 238.622Z" fill="black"/>
<path d="M112.358 255.885C114.286 255.885 116.171 255.313 117.774 254.242C119.377 253.171 120.627 251.648 121.365 249.867C122.102 248.086 122.296 246.126 121.919 244.235C121.543 242.344 120.615 240.607 119.251 239.244C117.888 237.88 116.151 236.952 114.26 236.576C112.369 236.2 110.409 236.393 108.628 237.13C106.847 237.868 105.324 239.118 104.253 240.721C103.182 242.324 102.61 244.209 102.61 246.137C102.619 248.719 103.649 251.194 105.475 253.02C107.301 254.846 109.776 255.876 112.358 255.885ZM112.358 238.622C113.845 238.622 115.298 239.063 116.535 239.889C117.771 240.715 118.734 241.889 119.303 243.262C119.872 244.636 120.021 246.147 119.73 247.605C119.44 249.064 118.724 250.403 117.673 251.454C116.621 252.505 115.282 253.221 113.824 253.511C112.366 253.801 110.854 253.652 109.481 253.082C108.107 252.513 106.933 251.549 106.108 250.313C105.282 249.077 104.841 247.623 104.842 246.137C104.849 244.146 105.644 242.238 107.052 240.83C108.46 239.423 110.367 238.629 112.358 238.622Z" fill="black"/>
<path d="M435.772 499.525H399.833C396.895 499.533 394.079 500.703 392.001 502.781C389.923 504.859 388.752 507.675 388.745 510.613V510.835C388.752 513.773 389.923 516.59 392.001 518.667C394.079 520.745 396.895 521.916 399.833 521.923H435.777C438.715 521.916 441.531 520.745 443.609 518.667C445.687 516.59 446.858 513.773 446.865 510.835V510.613C446.844 507.678 445.669 504.869 443.593 502.794C441.517 500.718 438.707 499.544 435.772 499.525ZM444.552 510.762C444.546 513.108 443.611 515.357 441.952 517.017C440.292 518.676 438.043 519.611 435.697 519.617H399.753C397.407 519.611 395.158 518.676 393.498 517.017C391.839 515.357 390.904 513.108 390.898 510.762V510.538C390.904 508.192 391.839 505.943 393.498 504.283C395.158 502.624 397.407 501.689 399.753 501.683H435.772C438.118 501.689 440.367 502.624 442.027 504.283C443.686 505.943 444.621 508.192 444.627 510.538V510.762H444.552Z" fill="black"/>
<path d="M361.727 499.525H258.735C255.797 499.533 252.981 500.703 250.903 502.781C248.825 504.859 247.654 507.675 247.647 510.613V510.835C247.654 513.773 248.825 516.59 250.903 518.667C252.981 520.745 255.797 521.916 258.735 521.923H361.653C364.592 521.916 367.408 520.745 369.486 518.667C371.564 516.59 372.734 513.773 372.742 510.835V510.613C372.751 507.682 371.596 504.868 369.53 502.788C367.465 500.709 364.658 499.535 361.727 499.525ZM370.508 510.762C370.503 513.108 369.568 515.357 367.909 517.017C366.249 518.676 364 519.611 361.653 519.617H258.735C256.388 519.611 254.139 518.676 252.48 517.017C250.821 515.357 249.886 513.108 249.88 510.762V510.538C249.886 508.192 250.821 505.943 252.48 504.283C254.139 502.624 256.388 501.689 258.735 501.683H361.653C364 501.689 366.249 502.624 367.909 504.283C369.568 505.943 370.503 508.192 370.508 510.538V510.762Z" fill="black"/>
<path d="M220.633 499.525H65.5499C62.6116 499.533 59.7957 500.703 57.7181 502.781C55.6406 504.859 54.4703 507.675 54.4633 510.613V510.835C54.4703 513.773 55.6406 516.589 57.7181 518.667C59.7957 520.745 62.6116 521.916 65.5499 521.923H220.633C223.572 521.916 226.388 520.746 228.466 518.668C230.544 516.59 231.715 513.774 231.722 510.835V510.613C231.701 507.679 230.526 504.87 228.451 502.795C226.376 500.72 223.568 499.546 220.633 499.525ZM229.415 510.762C229.409 513.108 228.474 515.357 226.815 517.017C225.156 518.676 222.907 519.611 220.56 519.617H65.5499C63.2032 519.611 60.9542 518.676 59.2948 517.017C57.6354 515.357 56.7006 513.108 56.6949 510.762V510.538C56.7006 508.192 57.6354 505.943 59.2948 504.283C60.9542 502.624 63.2032 501.689 65.5499 501.683H220.633C222.98 501.689 225.23 502.623 226.889 504.283C228.549 505.942 229.484 508.191 229.49 510.538V510.762H229.415Z" fill="black"/>
<path d="M304.575 481.813H318.193C321.132 481.806 323.948 480.635 326.026 478.557C328.104 476.48 329.274 473.664 329.282 470.725V470.5C329.274 467.561 328.104 464.745 326.026 462.668C323.948 460.59 321.132 459.419 318.193 459.412H304.65C301.712 459.419 298.896 460.59 296.818 462.668C294.74 464.745 293.569 467.561 293.562 470.5V470.723C293.55 472.177 293.826 473.618 294.374 474.964C294.923 476.309 295.732 477.533 296.756 478.564C297.78 479.596 298.999 480.414 300.341 480.971C301.683 481.529 303.122 481.815 304.575 481.813ZM295.72 470.577C295.726 468.23 296.661 465.981 298.32 464.322C299.979 462.662 302.228 461.727 304.575 461.722H318.193C320.54 461.727 322.79 462.662 324.45 464.321C326.109 465.98 327.044 468.23 327.05 470.577V470.8C327.044 473.147 326.109 475.396 324.45 477.056C322.79 478.715 320.54 479.65 318.193 479.655H304.65C302.303 479.649 300.054 478.714 298.395 477.055C296.736 475.396 295.801 473.147 295.795 470.8V470.577H295.72Z" fill="black"/>
<path d="M65.5499 481.813H146.143C149.082 481.806 151.898 480.635 153.976 478.557C156.053 476.48 157.224 473.664 157.232 470.725V470.5C157.224 467.562 156.053 464.745 153.976 462.668C151.898 460.59 149.082 459.419 146.143 459.412H65.5499C62.6116 459.419 59.7957 460.59 57.7181 462.668C55.6406 464.746 54.4703 467.562 54.4633 470.5V470.723C54.4699 473.662 55.6399 476.478 57.7176 478.557C59.7952 480.635 62.6113 481.806 65.5499 481.813ZM56.6949 470.577C56.7006 468.23 57.6354 465.981 59.2948 464.322C60.9542 462.662 63.2032 461.727 65.5499 461.722H146.143C148.49 461.727 150.739 462.662 152.398 464.322C154.058 465.981 154.993 468.23 154.998 470.577V470.8C154.993 473.147 154.058 475.396 152.398 477.055C150.739 478.714 148.49 479.649 146.143 479.655H65.5499C63.2032 479.649 60.9542 478.714 59.2948 477.055C57.6354 475.396 56.7006 473.147 56.6949 470.8V470.577Z" fill="black"/>
<path d="M65.55 441.777H187.892C190.83 441.77 193.646 440.599 195.723 438.522C197.801 436.444 198.971 433.628 198.978 430.69V430.467C198.971 427.528 197.801 424.712 195.723 422.634C193.646 420.556 190.83 419.386 187.892 419.378H183.427C184.711 418.94 185.956 418.393 187.147 417.742L202.402 409.703L215.35 436.87L215.872 438.06L216.243 438.878L226.142 459.417H184.988C182.051 459.424 179.235 460.594 177.158 462.671C175.08 464.748 173.909 467.562 173.9 470.5V470.723C173.907 473.662 175.078 476.478 177.156 478.556C179.234 480.634 182.05 481.804 184.988 481.812H266.333C269.272 481.804 272.088 480.634 274.166 478.556C276.244 476.478 277.414 473.662 277.422 470.723V470.5C277.414 467.562 276.243 464.746 274.165 462.669C272.087 460.591 269.272 459.421 266.333 459.413H230.383L284.112 435.303L242.885 426.303L257.47 419.383L234.028 382.323C230.23 376.332 224.302 372.003 217.439 370.209C210.576 368.415 203.287 369.29 197.043 372.657L173.082 385.53C171.445 382.48 166.013 372.508 160.06 361.493H228.227C230.713 361.491 233.096 360.503 234.854 358.745C236.612 356.987 237.601 354.604 237.603 352.118V351.895C237.616 350.529 237.321 349.178 236.741 347.941C236.161 346.705 235.311 345.614 234.253 344.75H273.397V295.623H199.947V342.5H149.715C145.177 334.167 141.455 327.318 140.338 325.235L144.803 319.952L134.608 314.668L132.153 310.203C131.326 308.685 130.202 307.349 128.847 306.274C127.492 305.2 125.934 304.41 124.267 303.952C122.6 303.493 120.857 303.376 119.144 303.606C117.43 303.836 115.78 304.409 114.293 305.292L114.07 305.44C113.847 305.588 113.698 305.663 113.475 305.812C114.161 304.293 114.516 302.645 114.517 300.978C114.517 297.939 113.309 295.024 111.16 292.875C109.011 290.726 106.096 289.518 103.057 289.518C100.017 289.518 97.1024 290.726 94.9532 292.875C92.804 295.024 91.5966 297.939 91.5966 300.978C91.5956 303.222 92.2414 305.418 93.4566 307.303C91.1876 305.405 88.2744 304.455 85.3226 304.649C82.3707 304.843 79.6073 306.168 77.6066 308.347C77.8194 307.495 77.9192 306.619 77.9033 305.742C77.8906 303.083 76.9493 300.512 75.2421 298.474C73.5349 296.435 71.1692 295.057 68.5539 294.578C65.9386 294.099 63.238 294.548 60.919 295.849C58.6 297.15 56.8084 299.22 55.8538 301.702C54.8992 304.183 54.8417 306.92 55.6911 309.44C56.5406 311.959 58.2436 314.103 60.5059 315.5C62.7682 316.897 65.4475 317.46 68.0806 317.091C70.7138 316.722 73.1353 315.445 74.9266 313.48C74.7137 314.332 74.614 315.207 74.63 316.085C74.63 317.59 74.9264 319.08 75.5023 320.471C76.0782 321.861 76.9224 323.124 77.9865 324.188C79.0507 325.253 80.314 326.097 81.7044 326.673C83.0948 327.249 84.585 327.545 86.09 327.545C87.5949 327.545 89.0851 327.249 90.4755 326.673C91.8659 326.097 93.1293 325.253 94.1934 324.188C95.2576 323.124 96.1017 321.861 96.6776 320.471C97.2536 319.08 97.55 317.59 97.55 316.085C97.5526 313.839 96.9067 311.64 95.69 309.752C97.7604 311.472 100.365 312.419 103.057 312.43C105.165 312.447 107.233 311.852 109.01 310.718C108.074 312.571 107.605 314.624 107.644 316.699C107.683 318.775 108.229 320.809 109.233 322.625L120.167 343.027L103.057 407.1H84.3783C82.4644 407.102 80.6294 407.863 79.2761 409.216C77.9228 410.569 77.1617 412.404 77.16 414.318V414.467C77.1831 416.357 77.9284 418.168 79.2433 419.527H65.4766C62.5381 419.534 59.7221 420.705 57.6443 422.783C55.5664 424.86 54.3958 427.676 54.3883 430.615V430.838C54.4434 433.761 55.644 436.545 57.7317 438.591C59.8193 440.637 62.627 441.781 65.55 441.777ZM275.255 470.577V470.8C275.249 473.147 274.314 475.396 272.655 477.055C270.996 478.715 268.747 479.649 266.4 479.655H185.067C182.72 479.649 180.471 478.715 178.812 477.055C177.152 475.396 176.217 473.147 176.212 470.8V470.577C176.217 468.23 177.152 465.981 178.812 464.322C180.471 462.662 182.72 461.727 185.067 461.722H266.4C267.564 461.719 268.716 461.946 269.792 462.39C270.868 462.834 271.845 463.486 272.668 464.309C273.491 465.132 274.143 466.109 274.587 467.185C275.031 468.26 275.258 469.413 275.255 470.577ZM66.5183 314.898C64.693 314.899 62.9087 314.358 61.3909 313.344C59.8731 312.33 58.69 310.889 57.9912 309.203C57.2925 307.516 57.1095 305.661 57.4654 303.871C57.8213 302.08 58.7001 300.436 59.9906 299.145C61.2812 297.854 62.9255 296.975 64.7157 296.619C66.5058 296.263 68.3614 296.446 70.0478 297.144C71.7341 297.842 73.1755 299.025 74.1896 300.543C75.2037 302.06 75.745 303.845 75.745 305.67C75.7452 306.882 75.5067 308.082 75.0431 309.201C74.5795 310.321 73.8999 311.338 73.0431 312.195C72.1863 313.052 71.1691 313.732 70.0496 314.196C68.93 314.66 67.7301 314.898 66.5183 314.898ZM131.408 376.812L150.908 408.067C154.237 413.407 159.312 417.43 165.27 419.453H119.948L131.408 376.812ZM239.61 427.862L277.042 436.122L228 458.075L218.325 437.908L238.717 428.167L239.61 427.862ZM172.188 388.57L198.087 374.58C203.845 371.488 210.56 370.69 216.883 372.347C223.205 374.003 228.666 377.992 232.168 383.51L254.27 418.485L239.387 425.555L238.643 425.927L217.435 435.973L203.443 406.727L186.11 415.88C180.441 418.851 173.86 419.575 167.681 417.906C161.502 416.238 156.18 412.3 152.777 406.88L132.163 373.913L136.703 356.872L134.545 356.277L128.358 379.417H112.805L122.033 344.813H148.377C153.362 354.04 160.728 367.585 171.593 387.602L172.188 388.57ZM202.253 297.857H271.237V342.5H202.253V297.85V297.857ZM228.225 344.738C230.12 344.739 231.936 345.492 233.276 346.832C234.615 348.172 235.368 349.989 235.368 351.883V352.032C235.368 353.926 234.615 355.743 233.276 357.082C231.936 358.422 230.119 359.175 228.225 359.175H185.667V344.667H228.233L228.225 344.738ZM183.427 344.738V359.25H158.868C156.19 354.338 153.51 349.353 150.98 344.738H183.427ZM130.218 311.252L132.823 316.013L132.972 316.312L141.305 320.628L137.882 324.72V325.093C138.547 326.732 139.369 328.302 140.337 329.782C138.398 331.049 136.05 331.531 133.769 331.128C131.488 330.726 129.446 329.47 128.058 327.615L126.273 328.948C127.324 330.364 128.694 331.513 130.271 332.302C131.848 333.09 133.588 333.497 135.352 333.488C137.493 333.504 139.591 332.883 141.378 331.703C142.712 334.233 144.578 337.655 147.183 342.418H122.478L114.74 328.057L127.763 308.187C128.779 309.033 129.614 310.076 130.218 311.252ZM86.1666 325.242C84.3414 325.242 82.5572 324.7 81.0396 323.686C79.5221 322.672 78.3392 321.231 77.6408 319.545C76.9423 317.859 76.7595 316.003 77.1156 314.213C77.4717 312.423 78.3506 310.779 79.6412 309.488C80.9318 308.197 82.5762 307.318 84.3663 306.962C86.1564 306.606 88.0119 306.789 89.6982 307.487C91.3844 308.186 92.8257 309.369 93.8397 310.886C94.8537 312.404 95.395 314.188 95.395 316.013C95.3954 317.225 95.157 318.426 94.6934 319.545C94.2298 320.665 93.5501 321.683 92.693 322.54C91.836 323.397 90.8185 324.076 89.6987 324.54C88.5789 325.004 87.3786 325.242 86.1666 325.242ZM93.9066 300.908C93.9063 299.083 94.4473 297.299 95.4611 295.781C96.4749 294.263 97.9161 293.08 99.6023 292.381C101.289 291.683 103.144 291.5 104.934 291.855C106.725 292.211 108.369 293.09 109.66 294.381C110.951 295.671 111.83 297.315 112.186 299.106C112.542 300.896 112.359 302.751 111.661 304.438C110.963 306.124 109.78 307.566 108.262 308.58C106.745 309.594 104.96 310.135 103.135 310.135C101.923 310.136 100.723 309.897 99.6025 309.434C98.4825 308.971 97.4648 308.291 96.6075 307.434C95.7502 306.577 95.0701 305.56 94.6061 304.44C94.1421 303.321 93.9033 302.12 93.9033 300.908H93.9066ZM115.263 307.233L115.487 307.083C116.717 306.348 118.086 305.876 119.508 305.697C120.93 305.518 122.374 305.635 123.748 306.042C124.497 306.262 125.22 306.562 125.905 306.935L113.548 325.833L111.317 321.592C109.966 319.158 109.622 316.292 110.359 313.608C111.096 310.924 112.855 308.635 115.26 307.233H115.263ZM79.4666 414.467V414.318C79.4666 412.996 79.9918 411.728 80.9266 410.793C81.8614 409.858 83.1294 409.332 84.4516 409.332H104.842L112.283 381.575H127.833L117.717 419.453H84.4516V419.378C83.141 419.382 81.8817 418.869 80.9481 417.949C80.0145 417.029 79.482 415.777 79.4666 414.467ZM56.695 430.54C56.7007 428.193 57.6355 425.944 59.2949 424.285C60.9543 422.625 63.2032 421.691 65.55 421.685H187.892C190.238 421.691 192.487 422.625 194.147 424.285C195.806 425.944 196.741 428.193 196.747 430.54V430.763C196.741 433.11 195.807 435.36 194.147 437.02C192.488 438.679 190.239 439.614 187.892 439.62H65.55C63.203 439.614 60.9537 438.679 59.2943 437.02C57.6348 435.36 56.7003 433.11 56.695 430.763V430.54Z" fill="black"/>
<path d="M212.575 167.619L210.441 168.272L214.249 180.726L216.384 180.073L212.575 167.619Z" fill="black"/>
<path d="M190.706 167.693L188.572 168.344L192.375 180.794L194.509 180.143L190.706 167.693Z" fill="black"/>
<path d="M196.97 203.497H225.992L222.122 190.847L219.965 191.515L223.015 201.265H198.607L195.407 190.847L193.248 191.515L196.97 203.497Z" fill="black"/>
<path d="M350.417 109.063C350.397 109.992 350.112 110.895 349.597 111.667L351.458 112.932C352.26 111.804 352.678 110.447 352.648 109.063C352.652 107.616 352.19 106.205 351.331 105.039C350.472 103.874 349.262 103.015 347.878 102.59C346.494 102.164 345.01 102.195 343.645 102.677C342.279 103.159 341.105 104.067 340.295 105.267L342.155 106.532C342.559 105.914 343.111 105.406 343.761 105.055C344.411 104.705 345.138 104.522 345.877 104.523C347.079 104.528 348.231 105.008 349.082 105.858C349.932 106.709 350.412 107.861 350.417 109.063Z" fill="black"/>
<path d="M329.43 107.277C330.827 107.277 331.96 106.144 331.96 104.747C331.96 103.349 330.827 102.217 329.43 102.217C328.033 102.217 326.9 103.349 326.9 104.747C326.9 106.144 328.033 107.277 329.43 107.277Z" fill="black"/>
<path d="M128.73 320.33C129.922 320.33 130.888 319.364 130.888 318.172C130.888 316.98 129.922 316.013 128.73 316.013C127.538 316.013 126.572 316.98 126.572 318.172C126.572 319.364 127.538 320.33 128.73 320.33Z" fill="black"/>
<path d="M250.847 336.553L264.54 320.182L250.847 303.81L249.135 305.298L261.637 320.182L249.135 335.138L250.847 336.553Z" fill="white"/>
<path d="M219.443 303.81L205.75 320.182L219.443 336.553L221.155 335.138L208.653 320.182L221.155 305.298L219.443 303.81Z" fill="white"/>
<path d="M240.729 302.942L228.091 336.592L230.182 337.377L242.819 303.727L240.729 302.942Z" fill="white"/>
<path d="M509.667 362.45H481.833V251.718C481.824 244.419 478.921 237.421 473.759 232.259C468.598 227.097 461.6 224.194 454.3 224.185H424.383C428.452 222.467 432.07 219.833 434.954 216.488C437.839 213.143 439.913 209.178 441.014 204.901C442.116 200.624 442.216 196.15 441.306 191.828C440.397 187.506 438.502 183.452 435.77 179.982L389.185 120.148C386.622 116.851 383.337 114.184 379.584 112.352C375.83 110.52 371.707 109.573 367.53 109.582L340.593 79.445C339.052 77.7121 337.179 76.3057 335.085 75.3087C332.991 74.3118 330.718 73.7445 328.402 73.6404C326.085 73.5363 323.77 73.8975 321.595 74.7027C319.421 75.5079 317.429 76.7407 315.738 78.3283L315.515 78.5517C312.211 81.6991 310.268 86.0136 310.101 90.574C309.934 95.1344 311.556 99.5794 314.622 102.96L315.738 104.152L300.855 117.985L302.343 119.622L317.152 105.78L323.253 112.403L320.873 114.635C320.358 115.109 319.947 115.684 319.665 116.325C319.383 116.965 319.237 117.657 319.235 118.357C319.216 119.057 319.338 119.754 319.593 120.405C319.849 121.057 320.233 121.651 320.723 122.152L320.798 122.227C321.272 122.741 321.847 123.152 322.487 123.434C323.127 123.716 323.819 123.862 324.518 123.863C325.221 123.9 325.923 123.786 326.577 123.529C327.232 123.273 327.825 122.879 328.315 122.375L330.547 120.292L339.923 130.487L310.09 186.522L302.575 181.387C299.936 179.574 296.688 178.878 293.537 179.45C290.387 180.021 287.591 181.814 285.757 184.438L274.297 200.958C273.673 201.832 273.239 202.825 273.021 203.876C272.803 204.926 272.807 206.011 273.032 207.06C273.234 208.1 273.641 209.089 274.228 209.971C274.816 210.852 275.573 211.608 276.455 212.195L276.603 212.27H250.037L232.833 153.415H148.897L169.585 224.11H53.8666C46.5671 224.119 39.569 227.022 34.4074 232.184C29.2458 237.346 26.3421 244.344 26.3333 251.643V512.845C26.3421 520.145 29.2458 527.143 34.4074 532.304C39.569 537.466 46.5671 540.37 53.8666 540.378H454.227C461.526 540.37 468.525 537.466 473.686 532.305C478.848 527.143 481.752 520.145 481.76 512.845V426.82H509.593V362.45H509.667ZM385.392 426.82H445.297V486.725H385.392V426.82ZM385.392 424.587V364.682H445.297V424.587H385.392ZM494.04 364.682V424.587H447.455V364.682H494.04ZM454.227 226.417C460.931 226.436 467.355 229.109 472.096 233.849C476.837 238.59 479.509 245.014 479.528 251.718V265.858H402.582L382.043 226.417H454.227ZM437.037 209.302C434.885 213.784 431.505 217.562 427.289 220.197C423.073 222.832 418.195 224.215 413.223 224.185H378.39L405.775 276.722L366.108 295.252L331.505 226.715C329.508 222.775 328.554 218.389 328.736 213.976C328.918 209.563 330.228 205.27 332.543 201.508C334.857 197.746 338.098 194.64 341.955 192.488C345.812 190.336 350.156 189.209 354.573 189.215H438.292C439.413 192.481 439.879 195.937 439.664 199.383C439.449 202.83 438.556 206.2 437.037 209.302ZM425.055 313.857L367.833 341.912C365.768 342.93 363.392 343.119 361.192 342.441C358.991 341.763 357.134 340.269 356 338.265L355.927 338.115C354.733 335.959 354.439 333.419 355.108 331.047C355.441 329.873 356.017 328.783 356.799 327.847C357.581 326.91 358.551 326.15 359.647 325.613L387.182 311.327L382.267 290.267L406.823 278.807L425.055 313.857ZM222.792 224.19L219.958 214.59H304.048L306.882 224.19H222.792ZM309.19 224.19L306.357 214.442C309.606 215.715 313.176 215.923 316.552 215.037C318.816 214.487 320.944 213.477 322.8 212.068C324.657 210.66 326.203 208.883 327.342 206.85L328.087 205.517C325.843 211.532 325.79 218.145 327.937 224.195L309.19 224.19ZM348.857 169.047L362.847 186.982H354.583C350.406 186.963 346.279 187.883 342.505 189.673C338.731 191.463 335.408 194.078 332.78 197.325L348.857 169.047ZM387.4 121.49L433.985 181.323C435.362 183.056 436.512 184.957 437.408 186.98H365.667L350.043 166.883L361.43 146.792L359.495 145.675L349.828 162.717L331 152L345.288 125.137C347.267 121.433 350.139 118.281 353.643 115.968C357.148 113.656 361.175 112.255 365.359 111.892C369.542 111.53 373.75 112.218 377.6 113.894C381.45 115.57 384.821 118.181 387.407 121.49H387.4ZM316.258 101.398C313.585 98.4529 312.167 94.5804 312.306 90.6053C312.445 86.6301 314.131 82.8663 317.003 80.115L317.227 79.8917C318.698 78.5066 320.433 77.4307 322.328 76.7278C324.223 76.0248 326.239 75.7091 328.258 75.7992C330.277 75.8894 332.258 76.3835 334.083 77.2525C335.907 78.1215 337.539 79.3476 338.882 80.8583L339.625 81.7517L317.3 102.585L316.258 101.398ZM335.167 121.937C338.185 121.492 340.953 120.007 342.993 117.737C345.032 115.468 346.213 112.557 346.333 109.508L344.1 109.36C344.073 110.758 343.769 112.137 343.208 113.418C342.647 114.698 341.839 115.856 340.829 116.824C339.82 117.791 338.63 118.551 337.327 119.058C336.023 119.565 334.633 119.81 333.235 119.778L330.705 117.025L326.833 120.667C326.241 121.218 325.453 121.512 324.644 121.484C323.835 121.456 323.07 121.109 322.517 120.518L322.442 120.443C322.161 120.154 321.942 119.81 321.798 119.434C321.653 119.058 321.586 118.656 321.6 118.253C321.614 117.85 321.709 117.454 321.879 117.089C322.05 116.723 322.292 116.396 322.592 116.127L326.535 112.407L318.945 104.147L341.278 83.3133L364.703 109.583C360.249 110.045 355.978 111.597 352.266 114.102C348.554 116.607 345.517 119.987 343.422 123.945L341.113 128.262L335.167 121.937ZM275.182 206.697C275.025 205.943 275.024 205.165 275.177 204.41C275.331 203.655 275.636 202.94 276.075 202.307L287.608 185.712C289.111 183.567 291.397 182.099 293.973 181.626C296.549 181.153 299.208 181.711 301.375 183.182L310.902 189.73L329.952 153.935L348.785 164.652L325.487 205.73C324.498 207.515 323.146 209.073 321.518 210.303C319.89 211.533 318.022 212.409 316.035 212.873C314.058 213.359 312.003 213.438 309.995 213.105C307.986 212.773 306.066 212.035 304.352 210.938L290.362 202.008L285.748 208.855C284.895 210.11 283.586 210.983 282.099 211.289C280.612 211.595 279.064 211.309 277.785 210.492L277.637 210.417C276.374 209.535 275.496 208.204 275.182 206.697ZM287.682 210.12L291.105 205.06L302.49 212.352H285.45C286.302 211.724 287.055 210.972 287.683 210.12H287.682ZM247.72 212.352H179.78L163.258 155.722H231.202L247.72 212.352ZM151.873 155.722H160.873L178.068 214.585H217.583L220.417 224.185H171.817L151.873 155.722ZM53.8666 226.417H328.833C329.057 226.863 329.205 227.31 329.428 227.75L348.703 265.852H28.565V251.712C28.5865 245.008 31.2594 238.586 35.9999 233.847C40.7404 229.108 47.1635 226.436 53.8666 226.417ZM479.603 512.917C479.584 519.621 476.911 526.045 472.171 530.786C467.43 535.527 461.006 538.199 454.302 538.218H53.9416C47.2379 538.199 40.8143 535.527 36.0737 530.787C31.3331 526.047 28.6606 519.624 28.64 512.92V268.087H349.895L365.077 298.225L380.108 291.155L384.498 310.057L358.527 323.602C357.184 324.311 355.999 325.283 355.04 326.46C354.081 327.637 353.368 328.995 352.945 330.453C352.521 331.911 352.396 333.439 352.575 334.947C352.754 336.454 353.235 337.91 353.988 339.228L354.062 339.377C355.047 341.114 356.476 342.559 358.201 343.566C359.926 344.572 361.888 345.104 363.885 345.107C365.608 345.093 367.307 344.713 368.872 343.992L428.182 314.895L403.772 268.087H479.605V362.45H383.167V488.95H447.538V426.82H479.612L479.603 512.917ZM507.437 424.583H496.348V364.682H507.437V424.583Z" fill="black"/>
<path d="M739.457 164.486L740.775 171.107L742.387 164.779L751.645 133.344H754.896L764.037 164.779L765.619 171.166L767.025 164.486L774.73 133.344H778.422L767.494 176H764.037L754.369 142.631L753.285 138.412L752.23 142.631L742.328 176H738.871L727.973 133.344H731.664L739.457 164.486ZM795.883 176.586C793.188 176.586 790.746 175.922 788.559 174.594C786.391 173.266 784.701 171.42 783.49 169.057C782.279 166.674 781.674 164.008 781.674 161.059V159.799C781.674 156.752 782.26 154.008 783.432 151.566C784.623 149.125 786.273 147.211 788.383 145.824C790.492 144.418 792.777 143.715 795.238 143.715C799.086 143.715 802.133 145.033 804.379 147.67C806.645 150.287 807.777 153.871 807.777 158.422V160.385H785.16V161.059C785.16 164.652 786.186 167.65 788.236 170.053C790.307 172.436 792.904 173.627 796.029 173.627C797.904 173.627 799.555 173.285 800.98 172.602C802.426 171.918 803.734 170.824 804.906 169.32L807.104 170.99C804.525 174.721 800.785 176.586 795.883 176.586ZM795.238 146.703C792.602 146.703 790.375 147.67 788.559 149.604C786.762 151.537 785.668 154.135 785.277 157.396H804.291V157.016C804.193 153.969 803.324 151.488 801.684 149.574C800.043 147.66 797.895 146.703 795.238 146.703ZM818.529 176H815.014V131H818.529V176ZM839.799 173.627C842.24 173.627 844.281 172.943 845.922 171.576C847.582 170.189 848.48 168.402 848.617 166.215H851.986C851.889 168.148 851.283 169.916 850.17 171.518C849.057 173.1 847.572 174.34 845.717 175.238C843.881 176.137 841.908 176.586 839.799 176.586C835.639 176.586 832.338 175.141 829.896 172.25C827.475 169.359 826.264 165.473 826.264 160.59V159.535C826.264 156.41 826.811 153.646 827.904 151.244C828.998 148.842 830.561 146.986 832.592 145.678C834.643 144.369 837.035 143.715 839.77 143.715C843.246 143.715 846.107 144.75 848.354 146.82C850.619 148.891 851.83 151.615 851.986 154.994H848.617C848.461 152.514 847.562 150.512 845.922 148.988C844.301 147.465 842.25 146.703 839.77 146.703C836.605 146.703 834.145 147.846 832.387 150.131C830.648 152.416 829.779 155.619 829.779 159.74V160.766C829.779 164.809 830.648 167.963 832.387 170.229C834.145 172.494 836.615 173.627 839.799 173.627ZM857.084 159.682C857.084 156.635 857.67 153.891 858.842 151.449C860.033 149.008 861.703 147.113 863.852 145.766C866.02 144.398 868.471 143.715 871.205 143.715C875.424 143.715 878.842 145.199 881.459 148.168C884.076 151.117 885.385 155.033 885.385 159.916V160.648C885.385 163.715 884.789 166.479 883.598 168.939C882.426 171.381 880.766 173.266 878.617 174.594C876.469 175.922 874.018 176.586 871.264 176.586C867.064 176.586 863.646 175.111 861.01 172.162C858.393 169.193 857.084 165.268 857.084 160.385V159.682ZM860.6 160.648C860.6 164.438 861.576 167.553 863.529 169.994C865.502 172.416 868.08 173.627 871.264 173.627C874.428 173.627 876.986 172.416 878.939 169.994C880.912 167.553 881.898 164.34 881.898 160.355V159.682C881.898 157.26 881.449 155.043 880.551 153.031C879.652 151.02 878.393 149.467 876.771 148.373C875.15 147.26 873.295 146.703 871.205 146.703C868.08 146.703 865.531 147.934 863.559 150.395C861.586 152.836 860.6 156.039 860.6 160.004V160.648ZM895.844 144.301L895.961 149.457C897.133 147.543 898.598 146.107 900.355 145.15C902.113 144.193 904.066 143.715 906.215 143.715C911.215 143.715 914.389 145.766 915.736 149.867C916.869 147.895 918.383 146.381 920.277 145.326C922.172 144.252 924.262 143.715 926.547 143.715C933.344 143.715 936.811 147.426 936.947 154.848V176H933.432V155.111C933.412 152.279 932.797 150.18 931.586 148.812C930.395 147.445 928.441 146.762 925.727 146.762C923.207 146.801 921.078 147.621 919.34 149.223C917.602 150.805 916.635 152.738 916.439 155.023V176H912.924V154.848C912.904 152.133 912.26 150.111 910.99 148.783C909.74 147.436 907.807 146.762 905.189 146.762C902.982 146.762 901.088 147.396 899.506 148.666C897.924 149.916 896.752 151.781 895.99 154.262V176H892.475V144.301H895.844ZM958.129 176.586C955.434 176.586 952.992 175.922 950.805 174.594C948.637 173.266 946.947 171.42 945.736 169.057C944.525 166.674 943.92 164.008 943.92 161.059V159.799C943.92 156.752 944.506 154.008 945.678 151.566C946.869 149.125 948.52 147.211 950.629 145.824C952.738 144.418 955.023 143.715 957.484 143.715C961.332 143.715 964.379 145.033 966.625 147.67C968.891 150.287 970.023 153.871 970.023 158.422V160.385H947.406V161.059C947.406 164.652 948.432 167.65 950.482 170.053C952.553 172.436 955.15 173.627 958.275 173.627C960.15 173.627 961.801 173.285 963.227 172.602C964.672 171.918 965.98 170.824 967.152 169.32L969.35 170.99C966.771 174.721 963.031 176.586 958.129 176.586ZM957.484 146.703C954.848 146.703 952.621 147.67 950.805 149.604C949.008 151.537 947.914 154.135 947.523 157.396H966.537V157.016C966.439 153.969 965.57 151.488 963.93 149.574C962.289 147.66 960.141 146.703 957.484 146.703ZM980.6 164.135H977.348L977.172 133.344H980.805L980.6 164.135ZM976.762 173.949C976.762 173.285 976.977 172.729 977.406 172.279C977.836 171.811 978.422 171.576 979.164 171.576C979.906 171.576 980.492 171.811 980.922 172.279C981.371 172.729 981.596 173.285 981.596 173.949C981.596 174.594 981.371 175.141 980.922 175.59C980.492 176.02 979.906 176.234 979.164 176.234C978.422 176.234 977.836 176.02 977.406 175.59C976.977 175.141 976.762 174.594 976.762 173.949Z" fill="black"/>
<path d="M641.162 95H639.844V77.373H617.139V95H615.82V59.4531H617.139V76.0547H639.844V59.4531H641.162V95ZM659.741 95.4883C657.609 95.4883 655.648 94.9186 653.857 93.7793C652.083 92.6237 650.692 91.0449 649.683 89.043C648.674 87.041 648.169 84.8193 648.169 82.3779V81.2793C648.169 78.8379 648.657 76.5999 649.634 74.5654C650.61 72.5309 651.953 70.944 653.662 69.8047C655.371 68.6654 657.235 68.0957 659.253 68.0957C662.199 68.0957 664.608 69.1455 666.479 71.2451C668.351 73.3447 669.287 76.1035 669.287 79.5215V80.9131H649.487V82.3535C649.487 84.502 649.935 86.4958 650.83 88.335C651.742 90.1579 652.987 91.5902 654.565 92.6318C656.16 93.6735 657.886 94.1943 659.741 94.1943C661.515 94.1943 663.021 93.9014 664.258 93.3154C665.511 92.7132 666.618 91.7936 667.578 90.5566L668.506 91.2158C666.536 94.0641 663.615 95.4883 659.741 95.4883ZM659.253 69.4141C656.681 69.4141 654.5 70.3743 652.71 72.2949C650.92 74.1992 649.87 76.6325 649.561 79.5947H667.969V79.2773C667.969 77.487 667.586 75.8268 666.821 74.2969C666.073 72.7507 665.031 71.5544 663.696 70.708C662.378 69.8454 660.897 69.4141 659.253 69.4141ZM683.179 92.9492L683.35 92.4609L692.48 68.584H693.945L682.129 99.5898L681.543 101.055C680.273 104.131 678.174 105.669 675.244 105.669C674.3 105.669 673.649 105.579 673.291 105.4L673.267 104.155C673.787 104.302 674.382 104.375 675.049 104.375C676.432 104.375 677.58 103.968 678.491 103.154C679.403 102.357 680.192 101.047 680.859 99.2236L682.471 94.8535L671.948 68.584H673.389L683.179 92.9492ZM734.302 60.7715H721.362V95H720.044V60.7715H707.104V59.4531H734.302V60.7715ZM741.162 74.7363C742.025 72.6855 743.294 71.0661 744.971 69.8779C746.647 68.6898 748.503 68.0957 750.537 68.0957C753.369 68.0957 755.469 68.9014 756.836 70.5127C758.219 72.1077 758.919 74.5247 758.936 77.7637V95H757.617V77.7148C757.601 74.8828 757.023 72.7913 755.884 71.4404C754.744 70.0732 752.938 69.3896 750.464 69.3896C748.185 69.3896 746.208 70.2035 744.531 71.8311C742.871 73.4424 741.748 75.5257 741.162 78.0811V95H739.844V57.5H741.162V74.7363ZM776.733 95.4883C774.601 95.4883 772.64 94.9186 770.85 93.7793C769.076 92.6237 767.684 91.0449 766.675 89.043C765.666 87.041 765.161 84.8193 765.161 82.3779V81.2793C765.161 78.8379 765.649 76.5999 766.626 74.5654C767.603 72.5309 768.945 70.944 770.654 69.8047C772.363 68.6654 774.227 68.0957 776.245 68.0957C779.191 68.0957 781.6 69.1455 783.472 71.2451C785.343 73.3447 786.279 76.1035 786.279 79.5215V80.9131H766.479V82.3535C766.479 84.502 766.927 86.4958 767.822 88.335C768.734 90.1579 769.979 91.5902 771.558 92.6318C773.153 93.6735 774.878 94.1943 776.733 94.1943C778.507 94.1943 780.013 93.9014 781.25 93.3154C782.503 92.7132 783.61 91.7936 784.57 90.5566L785.498 91.2158C783.529 94.0641 780.607 95.4883 776.733 95.4883ZM776.245 69.4141C773.674 69.4141 771.493 70.3743 769.702 72.2949C767.912 74.1992 766.862 76.6325 766.553 79.5947H784.961V79.2773C784.961 77.487 784.578 75.8268 783.813 74.2969C783.065 72.7507 782.023 71.5544 780.688 70.708C779.37 69.8454 777.889 69.4141 776.245 69.4141ZM804.077 69.5361L802.368 69.3896C800.122 69.3896 798.242 70.1221 796.729 71.5869C795.215 73.0355 794.222 75.07 793.75 77.6904V95H792.432V68.584H793.75V74.0771C794.466 72.238 795.54 70.7812 796.973 69.707C798.405 68.6328 800.203 68.0957 802.368 68.0957C803.133 68.0957 803.752 68.1852 804.224 68.3643L804.077 69.5361ZM818.188 95.4883C816.056 95.4883 814.095 94.9186 812.305 93.7793C810.531 92.6237 809.139 91.0449 808.13 89.043C807.121 87.041 806.616 84.8193 806.616 82.3779V81.2793C806.616 78.8379 807.104 76.5999 808.081 74.5654C809.058 72.5309 810.4 70.944 812.109 69.8047C813.818 68.6654 815.682 68.0957 817.7 68.0957C820.646 68.0957 823.055 69.1455 824.927 71.2451C826.799 73.3447 827.734 76.1035 827.734 79.5215V80.9131H807.935V82.3535C807.935 84.502 808.382 86.4958 809.277 88.335C810.189 90.1579 811.434 91.5902 813.013 92.6318C814.608 93.6735 816.333 94.1943 818.188 94.1943C819.963 94.1943 821.468 93.9014 822.705 93.3154C823.958 92.7132 825.065 91.7936 826.025 90.5566L826.953 91.2158C824.984 94.0641 822.062 95.4883 818.188 95.4883ZM817.7 69.4141C815.129 69.4141 812.948 70.3743 811.157 72.2949C809.367 74.1992 808.317 76.6325 808.008 79.5947H826.416V79.2773C826.416 77.487 826.034 75.8268 825.269 74.2969C824.52 72.7507 823.478 71.5544 822.144 70.708C820.825 69.8454 819.344 69.4141 817.7 69.4141ZM832.837 101.226L831.934 100.444C833.252 98.7516 833.968 97.002 834.082 95.1953L834.106 91.1182H835.425V94.6826C835.36 97.2705 834.497 99.4515 832.837 101.226Z" fill="black"/>
</g>
<defs>
<clipPath id="clip0">
<rect width="1500" height="500" fill="white"/>
</clipPath>
</defs>
</svg>
